<svg width="25" height="25" viewBox="0 0 25 25" fill="none" xmlns="http://www.w3.org/2000/svg">
<g clip-path="url(#clip0_83_1386)">
<path d="M24.3021 13.1771V14.2187C24.307 14.4624 24.2263 14.7001 24.074 14.8905C23.9218 15.0808 23.7076 15.2117 23.4688 15.2604L22.1771 15.5208C21.9311 16.5575 21.5158 17.5465 20.9479 18.4479L21.6875 19.5521C21.8132 19.7488 21.8693 19.982 21.8466 20.2143C21.8239 20.4467 21.7239 20.6647 21.5625 20.8333L20.1354 22.2604C19.9646 22.4294 19.7407 22.5342 19.5015 22.557C19.2623 22.5798 19.0225 22.5192 18.8229 22.3854L17.7083 21.6354C16.8135 22.2205 15.8279 22.6535 14.7917 22.9167L14.5833 24.1562C14.5346 24.3951 14.4037 24.6093 14.2134 24.7615C14.0231 24.9138 13.7854 24.9945 13.5417 24.9896H11.4583C11.2146 24.9945 10.9769 24.9138 10.7866 24.7615C10.5963 24.6093 10.4654 24.3951 10.4167 24.1562L10.2083 22.9167C9.17207 22.6535 8.18652 22.2205 7.29167 21.6354L6.1875 22.375C5.98788 22.5087 5.74816 22.5694 5.50896 22.5466C5.26976 22.5238 5.04579 22.419 4.875 22.25L3.4375 20.8333C3.26848 20.6625 3.16371 20.4386 3.14093 20.1994C3.11815 19.9602 3.17876 19.7205 3.3125 19.5208L4.05208 18.4167C3.48419 17.5152 3.06889 16.5262 2.82292 15.4896L1.53125 15.2292C1.29242 15.1805 1.07823 15.0496 0.925967 14.8592C0.773701 14.6689 0.693002 14.4312 0.697917 14.1875V13.1458H7.53125C7.53125 14.4636 8.05474 15.7274 8.98656 16.6593C9.91838 17.5911 11.1822 18.1146 12.5 18.1146C13.8178 18.1146 15.0816 17.5911 16.0134 16.6593C16.9453 15.7274 17.4688 14.4636 17.4688 13.1458L24.3021 13.1771ZM17.8854 3.96875C17.8854 4.60969 18.14 5.22438 18.5932 5.67759C19.0465 6.1308 19.6611 6.38542 20.3021 6.38542C20.943 6.38542 21.5577 6.1308 22.0109 5.67759C22.4641 5.22438 22.7187 4.60969 22.7187 3.96875C22.7187 3.32781 22.4641 2.71312 22.0109 2.25991C21.5577 1.8067 20.943 1.55208 20.3021 1.55208C19.6611 1.55208 19.0465 1.8067 18.5932 2.25991C18.14 2.71312 17.8854 3.32781 17.8854 3.96875ZM2.29167 3.96875C2.29167 4.60969 2.54628 5.22438 2.99949 5.67759C3.4527 6.1308 4.06739 6.38542 4.70833 6.38542C5.34927 6.38542 5.96396 6.1308 6.41717 5.67759C6.87039 5.22438 7.125 4.60969 7.125 3.96875C7.125 3.32781 6.87039 2.71312 6.41717 2.25991C5.96396 1.8067 5.34927 1.55208 4.70833 1.55208C4.06739 1.55208 3.4527 1.8067 2.99949 2.25991C2.54628 2.71312 2.29167 3.32781 2.29167 3.96875ZM7.08333 9.16667C6.70957 8.92899 6.30702 8.73997 5.88542 8.60417C4.76863 8.29033 3.57841 8.36465 2.50935 8.81498C1.44029 9.26531 0.555624 10.065 0 11.0833H5.96875C6.27745 10.4099 6.65072 9.76802 7.08333 9.16667ZM18.9375 11.1146H25C24.4472 10.0903 23.5622 9.28471 22.4906 8.83033C21.4191 8.37596 20.2247 8.29987 19.1042 8.61458C18.6748 8.75201 18.2652 8.94459 17.8854 9.1875C18.2944 9.7963 18.6465 10.4414 18.9375 11.1146ZM17.7812 11.1146C17.3653 10.0346 16.645 9.09856 15.7075 8.41997C14.7701 7.74139 13.6558 7.34943 12.5 7.29167C11.3346 7.343 10.2095 7.73294 9.26223 8.41376C8.31501 9.09458 7.58678 10.0368 7.16667 11.125L17.7812 11.1146ZM9.36458 3.03125C9.36458 3.83519 9.68395 4.6062 10.2524 5.17467C10.8209 5.74314 11.5919 6.0625 12.3958 6.0625C13.1998 6.0625 13.9708 5.74314 14.5393 5.17467C15.1077 4.6062 15.4271 3.83519 15.4271 3.03125C15.4271 2.22731 15.1077 1.4563 14.5393 0.887833C13.9708 0.319363 13.1998 0 12.3958 0C11.5919 0 10.8209 0.319363 10.2524 0.887833C9.68395 1.4563 9.36458 2.22731 9.36458 3.03125Z" fill="#CCD4DF"/>
</g>
<defs>
<clipPath id="clip0_83_1386">
<rect width="25" height="25" fill="white"/>
</clipPath>
</defs>
</svg>
