<svg width="25" height="25" viewBox="0 0 25 25" fill="none" xmlns="http://www.w3.org/2000/svg">
<path d="M13.5417 20.8333H4.16667C3.8904 20.8333 3.62545 20.7236 3.4301 20.5282C3.23475 20.3329 3.125 20.0679 3.125 19.7917V10.4167C3.125 10.1404 3.23475 9.87545 3.4301 9.6801C3.62545 9.48475 3.8904 9.375 4.16667 9.375H7.29167M13.5417 20.8333H16.6667C16.9429 20.8333 17.2079 20.7236 17.4032 20.5282C17.5986 20.3329 17.7083 20.0679 17.7083 19.7917V17.1875M13.5417 20.8333V19.7917" stroke="#CCD4DF" stroke-width="2" stroke-linecap="round" stroke-linejoin="round"/>
<path fill-rule="evenodd" clip-rule="evenodd" d="M22.9167 6.25001C22.9167 5.69747 22.6972 5.16757 22.3065 4.77687C21.9158 4.38617 21.3859 4.16667 20.8333 4.16667H8.33333C7.7808 4.16667 7.25089 4.38617 6.86019 4.77687C6.46949 5.16757 6.25 5.69747 6.25 6.25001V15.625C6.25 16.1775 6.46949 16.7074 6.86019 17.0981C7.25089 17.4888 7.7808 17.7083 8.33333 17.7083H20.8333C21.3859 17.7083 21.9158 17.4888 22.3065 17.0981C22.6972 16.7074 22.9167 16.1775 22.9167 15.625V6.25001ZM18.75 6.25105C18.75 6.52731 18.6403 6.79227 18.4449 6.98762C18.2496 7.18297 17.9846 7.29271 17.7083 7.29271C17.4321 7.29271 17.1671 7.18297 16.9718 6.98762C16.7764 6.79227 16.6667 6.52731 16.6667 6.25105C16.6667 5.97478 16.7764 5.70879 16.9718 5.51344C17.1671 5.31809 17.4321 5.20834 17.7083 5.20834C17.9846 5.20834 18.2496 5.31809 18.4449 5.51344C18.6403 5.70879 18.75 5.97478 18.75 6.25105ZM17.7083 11.4594C17.9846 11.4594 18.2496 11.3496 18.4449 11.1543C18.6403 10.9589 18.75 10.694 18.75 10.4177V10.4167C18.75 10.1404 18.6403 9.87545 18.4449 9.6801C18.2496 9.48475 17.9846 9.37501 17.7083 9.37501C17.4321 9.37501 17.1671 9.48475 16.9718 9.6801C16.7764 9.87545 16.6667 10.1404 16.6667 10.4167V10.4177C16.6667 10.694 16.7764 10.9589 16.9718 11.1543C17.1671 11.3496 17.4321 11.4594 17.7083 11.4594ZM18.75 14.5844C18.75 14.8606 18.6403 15.1256 18.4449 15.321C18.2496 15.5163 17.9846 15.626 17.7083 15.626C17.4321 15.626 17.1671 15.5163 16.9718 15.321C16.7764 15.1256 16.6667 14.8606 16.6667 14.5844V14.5833C16.6667 14.3071 16.7764 14.0421 16.9718 13.8468C17.1671 13.6514 17.4321 13.5417 17.7083 13.5417C17.9846 13.5417 18.2496 13.6514 18.4449 13.8468C18.6403 14.0421 18.75 14.3071 18.75 14.5833V14.5844Z" fill="#CCD4DF"/>
</svg>
