<svg width="25" height="25" viewBox="0 0 25 25" fill="none" xmlns="http://www.w3.org/2000/svg">
<path fill-rule="evenodd" clip-rule="evenodd" d="M3.40491 7.45402L10.6304 2.39464C11.0183 2.12311 11.4981 2.01676 11.9644 2.09897C12.4307 2.18118 12.8453 2.44522 13.117 2.83303L14.2567 4.46027C14.2734 4.48408 14.2893 4.50833 14.3045 4.53303L3.40491 7.45402ZM0.958483 13.3214L0.464286 11.4768C0.341866 11.0193 0.406197 10.5319 0.643128 10.1218C0.88006 9.71176 1.27018 9.41261 1.72768 9.29018L19.8384 4.4375C20.2958 4.31491 20.7832 4.37906 21.1934 4.61582C21.6035 4.85258 21.9028 5.24257 22.0254 5.7L22.5393 7.61875C22.6119 7.88963 22.6031 8.17589 22.5141 8.44183C22.4251 8.70777 22.2598 8.94164 22.0388 9.11428C21.6915 9.38516 21.4321 9.75272 21.2932 10.1707C21.1543 10.5887 21.1421 11.0384 21.2582 11.4633C21.3744 11.8882 21.6135 12.2692 21.9457 12.5585C22.2779 12.8477 22.6882 13.0322 23.125 13.0888C23.3948 13.124 23.648 13.2385 23.8528 13.4177C24.0575 13.5969 24.2044 13.8328 24.275 14.0955L24.7982 16.0496C24.9208 16.507 24.8567 16.9944 24.6199 17.4045C24.3831 17.8147 23.9931 18.114 23.5357 18.2366L5.42411 23.0893C4.96673 23.2117 4.47945 23.1475 4.0694 22.9108C3.65936 22.674 3.36012 22.2841 3.2375 21.8268L2.74509 19.9884C2.66726 19.6991 2.67474 19.3935 2.76662 19.1083C2.8585 18.8232 3.03086 18.5707 3.26295 18.3812C3.59643 18.109 3.84411 17.7462 3.97614 17.3365C4.10818 16.9267 4.11894 16.4876 4.00714 16.0719C3.89533 15.6561 3.66572 15.2816 3.34597 14.9934C3.02622 14.7052 2.62996 14.5155 2.20491 14.4473C1.91087 14.3999 1.63682 14.2685 1.41575 14.0689C1.19469 13.8693 1.03604 13.61 0.958929 13.3223M16.7973 10.3362C16.9692 10.2925 17.1307 10.2151 17.2725 10.1085C17.4142 10.002 17.5334 9.86828 17.6231 9.71527C17.7127 9.56226 17.7711 9.39296 17.7949 9.2172C17.8186 9.04144 17.8071 8.86272 17.7612 8.69141C17.7153 8.52011 17.6359 8.35962 17.5274 8.21928C17.419 8.07893 17.2838 7.96152 17.1296 7.87386C16.9754 7.78619 16.8054 7.73002 16.6293 7.70861C16.4533 7.68719 16.2747 7.70096 16.104 7.74911C15.7651 7.84471 15.4774 8.06996 15.3034 8.3761C15.1293 8.68224 15.0828 9.04462 15.174 9.38478C15.2651 9.72494 15.4866 10.0155 15.7904 10.1936C16.0943 10.3716 16.456 10.4229 16.7973 10.3362ZM17.7214 13.7862C17.8913 13.7407 18.0506 13.6622 18.1902 13.5551C18.3297 13.4481 18.4468 13.3146 18.5348 13.1623C18.6227 13.01 18.6799 12.8418 18.7028 12.6674C18.7258 12.4931 18.7142 12.3159 18.6688 12.146C18.6233 11.9761 18.5447 11.8168 18.4377 11.6773C18.3307 11.5377 18.1972 11.4206 18.0449 11.3326C17.8926 11.2447 17.7244 11.1876 17.55 11.1646C17.3757 11.1416 17.1985 11.1532 17.0286 11.1987C16.6854 11.2906 16.3929 11.5151 16.2153 11.8227C16.0377 12.1303 15.9895 12.4959 16.0815 12.8391C16.1734 13.1822 16.3979 13.4747 16.7055 13.6523C17.0132 13.83 17.3783 13.8781 17.7214 13.7862ZM18.6464 17.2357C18.8188 17.1925 18.9808 17.1154 19.1231 17.009C19.2654 16.9025 19.385 16.7688 19.4751 16.6157C19.5652 16.4625 19.6239 16.293 19.6479 16.1169C19.6718 15.9409 19.6604 15.7618 19.6145 15.5902C19.5685 15.4185 19.4888 15.2577 19.3801 15.1172C19.2714 14.9766 19.1358 14.8591 18.9812 14.7715C18.8266 14.6839 18.6562 14.6279 18.4797 14.6068C18.3033 14.5857 18.1244 14.5999 17.9536 14.6487C17.6156 14.745 17.329 14.9704 17.1557 15.2762C16.9823 15.5819 16.9361 15.9436 17.0271 16.2831C17.118 16.6226 17.3387 16.9128 17.6417 17.091C17.9446 17.2692 18.3055 17.3212 18.6464 17.2357Z" fill="#CCD4DF"/>
</svg>
