<svg width="16" height="17" viewBox="0 0 16 17" fill="none" xmlns="http://www.w3.org/2000/svg">
<path d="M2.33337 7.86816V9.86816C2.33337 12.3823 2.33337 13.6394 3.11442 14.4204C3.89547 15.2015 5.15255 15.2015 7.66671 15.2015H8.33337C10.8475 15.2015 12.1046 15.2015 12.8856 14.4204C13.6667 13.6394 13.6667 12.3823 13.6667 9.86816V7.86816" stroke="#B2B2B2"/>
<path d="M6.33324 1.86816H9.66657L10.101 6.21308C10.2254 7.45616 9.24917 8.53483 7.99991 8.53483C6.75064 8.53483 5.77444 7.45616 5.89875 6.21308L6.33324 1.86816Z" stroke="#B2B2B2"/>
<path d="M2.21979 4.10238C2.33851 3.50878 2.39787 3.21198 2.51857 2.97139C2.77288 2.46442 3.23049 2.08928 3.77748 1.93933C4.03707 1.86816 4.33975 1.86816 4.9451 1.86816H6.33331L5.85029 6.69834C5.74603 7.7409 4.86875 8.53483 3.82099 8.53483C2.53403 8.53483 1.56879 7.35743 1.82118 6.09545L2.21979 4.10238Z" stroke="#B2B2B2"/>
<path d="M13.7802 4.10238C13.6614 3.50878 13.602 3.21198 13.4814 2.97139C13.227 2.46442 12.7694 2.08928 12.2224 1.93933C11.9628 1.86816 11.6602 1.86816 11.0548 1.86816H9.66663L10.1496 6.69834C10.2539 7.7409 11.1312 8.53483 12.179 8.53483C13.4659 8.53483 14.4312 7.35743 14.1788 6.09545L13.7802 4.10238Z" stroke="#B2B2B2"/>
<path d="M6.33337 14.8682V12.8682C6.33337 12.2451 6.33337 11.9336 6.46735 11.7015C6.55511 11.5495 6.68137 11.4233 6.83337 11.3355C7.06544 11.2015 7.37697 11.2015 8.00004 11.2015C8.62311 11.2015 8.93464 11.2015 9.16671 11.3355C9.31871 11.4233 9.44497 11.5495 9.53271 11.7015C9.66671 11.9336 9.66671 12.2451 9.66671 12.8682V14.8682" stroke="#B2B2B2" stroke-linecap="round"/>
</svg>
