<svg width="22" height="21" viewBox="0 0 22 21" fill="none" xmlns="http://www.w3.org/2000/svg">
<path d="M0.699951 10.2002C0.699951 6.42896 0.699951 4.54335 1.87152 3.37177C3.0431 2.2002 4.92871 2.2002 8.69995 2.2002H12.7C16.4712 2.2002 18.3569 2.2002 19.5284 3.37177C20.7 4.54335 20.7 6.42896 20.7 10.2002V12.2002C20.7 15.9714 20.7 17.8571 19.5284 19.0286C18.3569 20.2002 16.4712 20.2002 12.7 20.2002H8.69995C4.92871 20.2002 3.0431 20.2002 1.87152 19.0286C0.699951 17.8571 0.699951 15.9714 0.699951 12.2002V10.2002Z" stroke="#002660" stroke-width="1.4"/>
<path d="M5.69995 2.2002V0.700195" stroke="#002660" stroke-width="1.4" stroke-linecap="round"/>
<path d="M15.7 2.2002V0.700195" stroke="#002660" stroke-width="1.4" stroke-linecap="round"/>
<path d="M1.19995 7.2002H20.1999" stroke="#002660" stroke-width="1.4" stroke-linecap="round"/>
</svg>
