<svg width="20" height="20" viewBox="0 0 20 20" fill="none" xmlns="http://www.w3.org/2000/svg">
<path d="M11.2711 3.58837C11.2923 3.50905 11.329 3.43469 11.3789 3.36953C11.4289 3.30438 11.4912 3.24971 11.5623 3.20864C11.6334 3.16758 11.7119 3.14092 11.7933 3.13021C11.8747 3.11949 11.9574 3.12492 12.0367 3.14618C13.1954 3.44848 14.2525 4.05418 15.0992 4.9009C15.9459 5.74761 16.5516 6.80472 16.8539 7.96337C16.8752 8.04267 16.8806 8.12539 16.8699 8.2068C16.8592 8.2882 16.8325 8.3667 16.7915 8.4378C16.7504 8.5089 16.6957 8.57121 16.6306 8.62118C16.5654 8.67114 16.491 8.70778 16.4117 8.72899C16.3589 8.74289 16.3046 8.74997 16.25 8.75009C16.1123 8.75008 15.9784 8.70459 15.8692 8.62067C15.76 8.53675 15.6816 8.41911 15.6461 8.28602C15.3995 7.34018 14.9052 6.4772 14.2141 5.78604C13.5229 5.09488 12.6599 4.60055 11.7141 4.35399C11.6347 4.33286 11.5602 4.29628 11.495 4.24636C11.4298 4.19643 11.375 4.13413 11.3339 4.06302C11.2927 3.99191 11.266 3.91338 11.2552 3.83194C11.2445 3.75049 11.2499 3.66773 11.2711 3.58837ZM11.0891 6.85399C12.1664 7.14149 12.8586 7.83368 13.1461 8.91102C13.1816 9.04411 13.26 9.16175 13.3692 9.24567C13.4784 9.32959 13.6123 9.37508 13.75 9.37509C13.8046 9.37497 13.8589 9.36789 13.9117 9.35399C13.991 9.33278 14.0654 9.29614 14.1306 9.24618C14.1957 9.19621 14.2504 9.1339 14.2915 9.0628C14.3325 8.9917 14.3592 8.9132 14.3699 8.8318C14.3806 8.75039 14.3752 8.66767 14.3539 8.58837C13.9539 7.09149 12.9086 6.04618 11.4117 5.64618C11.2516 5.60339 11.081 5.62598 10.9374 5.70898C10.7939 5.79198 10.6893 5.92859 10.6465 6.08876C10.6037 6.24892 10.6263 6.41953 10.7093 6.56304C10.7923 6.70655 10.9289 6.81121 11.0891 6.85399ZM17.4906 14.3032C17.3513 15.3618 16.8314 16.3335 16.0281 17.0369C15.2247 17.7402 14.1927 18.127 13.125 18.1251C6.92188 18.1251 1.87501 13.0782 1.87501 6.87509C1.87309 5.80734 2.25992 4.77542 2.96324 3.97204C3.66655 3.16866 4.63826 2.64876 5.69688 2.50946C5.96458 2.47677 6.23567 2.53154 6.46968 2.66558C6.7037 2.79963 6.88809 3.00576 6.99532 3.25321L8.64532 6.9368V6.94618C8.72742 7.1356 8.76133 7.3424 8.74401 7.54811C8.7267 7.75383 8.6587 7.95206 8.5461 8.12509C8.53204 8.14618 8.51719 8.16571 8.50157 8.18524L6.87501 10.1134C7.46016 11.3024 8.70391 12.5352 9.9086 13.122L11.8102 11.504C11.8288 11.4883 11.8484 11.4737 11.8688 11.4602C12.0416 11.3449 12.2405 11.2745 12.4475 11.2554C12.6544 11.2364 12.8628 11.2691 13.0539 11.3509L13.0641 11.3556L16.7445 13.0048C16.9924 13.1116 17.1991 13.2959 17.3335 13.5299C17.468 13.7639 17.5231 14.0352 17.4906 14.3032ZM16.25 14.147H16.2414L12.5695 12.5024L10.6672 14.1204C10.6488 14.1361 10.6295 14.1507 10.6094 14.1641C10.4295 14.2842 10.2216 14.3554 10.0059 14.3711C9.79023 14.3867 9.5742 14.3461 9.37891 14.2532C7.91563 13.5462 6.45704 12.0985 5.74923 10.6509C5.6555 10.457 5.61344 10.2422 5.62713 10.0273C5.64082 9.81242 5.70978 9.60471 5.82735 9.4243C5.84057 9.4031 5.85546 9.38298 5.87188 9.36415L7.50001 7.43368L5.85938 3.76181C5.85907 3.75869 5.85907 3.75555 5.85938 3.75243C5.10177 3.85126 4.40616 4.22287 3.90283 4.79768C3.3995 5.37248 3.12296 6.11106 3.12501 6.87509C3.1279 9.52636 4.1824 12.0682 6.05714 13.943C7.93187 15.8177 10.4737 16.8722 13.125 16.8751C13.8886 16.8777 14.6269 16.6021 15.2021 16.0999C15.7772 15.5977 16.1497 14.9031 16.25 14.1462V14.147Z" fill="white"/>
</svg>
