<svg width="25" height="25" viewBox="0 0 25 25" fill="none" xmlns="http://www.w3.org/2000/svg">
<path d="M12.5 2.5C16.0212 2.5 18.0188 4.90375 18.3088 7.8075H18.3962C20.665 7.8075 22.5 9.6975 22.5 12.0288C22.5 12.1479 22.4954 12.2658 22.4862 12.3825C21.5889 11.2616 20.3764 10.4352 19.0051 10.0097C17.6337 9.58428 16.1664 9.57931 14.7922 9.99546C13.418 10.4116 12.1999 11.2298 11.295 12.3446C10.39 13.4593 9.83975 14.8196 9.715 16.25H6.6025C4.33625 16.25 2.5 14.36 2.5 12.0288C2.5 9.6975 4.3375 7.8075 6.6025 7.8075H6.69125C6.98375 4.885 8.97875 2.5 12.5 2.5ZM22.5 16.875C22.5 18.3668 21.9074 19.7976 20.8525 20.8525C19.7976 21.9074 18.3668 22.5 16.875 22.5C15.3832 22.5 13.9524 21.9074 12.8975 20.8525C11.8426 19.7976 11.25 18.3668 11.25 16.875C11.25 15.3832 11.8426 13.9524 12.8975 12.8975C13.9524 11.8426 15.3832 11.25 16.875 11.25C18.3668 11.25 19.7976 11.8426 20.8525 12.8975C21.9074 13.9524 22.5 15.3832 22.5 16.875ZM19.8175 14.5575C19.7594 14.4993 19.6905 14.4531 19.6145 14.4216C19.5386 14.3901 19.4572 14.3739 19.375 14.3739C19.2928 14.3739 19.2114 14.3901 19.1355 14.4216C19.0595 14.4531 18.9906 14.4993 18.9325 14.5575L15.625 17.8663L14.8175 17.0575C14.7594 16.9994 14.6904 16.9533 14.6145 16.9218C14.5386 16.8904 14.4572 16.8742 14.375 16.8742C14.2928 16.8742 14.2114 16.8904 14.1355 16.9218C14.0596 16.9533 13.9906 16.9994 13.9325 17.0575C13.8744 17.1156 13.8283 17.1846 13.7968 17.2605C13.7654 17.3364 13.7492 17.4178 13.7492 17.5C13.7492 17.5822 13.7654 17.6636 13.7968 17.7395C13.8283 17.8154 13.8744 17.8844 13.9325 17.9425L15.1825 19.1925C15.2406 19.2507 15.3095 19.2969 15.3855 19.3284C15.4614 19.3599 15.5428 19.3761 15.625 19.3761C15.7072 19.3761 15.7886 19.3599 15.8645 19.3284C15.9405 19.2969 16.0094 19.2507 16.0675 19.1925L19.8175 15.4425C19.8757 15.3844 19.9219 15.3155 19.9534 15.2395C19.9849 15.1636 20.0011 15.0822 20.0011 15C20.0011 14.9178 19.9849 14.8364 19.9534 14.7605C19.9219 14.6845 19.8757 14.6156 19.8175 14.5575Z" fill="#CCD4DF"/>
</svg>
