<svg width="25" height="25" viewBox="0 0 25 25" fill="none" xmlns="http://www.w3.org/2000/svg">
<path fill-rule="evenodd" clip-rule="evenodd" d="M12.856 22.4396C11.426 22.4396 10.2065 22.4102 9.18398 22.3666V3.07309C10.4073 3.02274 11.6316 2.9984 12.856 3.00008C15.6251 3.00008 17.6041 3.10981 18.8936 3.2204C20.3179 3.34222 21.3953 4.45505 21.4994 5.87071C21.6031 7.28205 21.7119 9.52325 21.7119 12.72C21.7119 15.9168 21.6031 18.158 21.4994 19.5694C21.3957 20.985 20.3179 22.0979 18.8936 22.2197C17.6041 22.3303 15.6246 22.4396 12.856 22.4396ZM11.128 7.53563C11.128 7.30649 11.219 7.08672 11.381 6.92469C11.5431 6.76266 11.7628 6.67163 11.992 6.67163H17.1759C17.4051 6.67163 17.6249 6.76266 17.7869 6.92469C17.9489 7.08672 18.0399 7.30649 18.0399 7.53563C18.0399 7.76478 17.9489 7.98454 17.7869 8.14657C17.6249 8.3086 17.4051 8.39963 17.1759 8.39963H11.992C11.7628 8.39963 11.5431 8.3086 11.381 8.14657C11.219 7.98454 11.128 7.76478 11.128 7.53563ZM11.992 10.5596C11.7628 10.5596 11.5431 10.6506 11.381 10.8127C11.219 10.9747 11.128 11.1945 11.128 11.4236C11.128 11.6528 11.219 11.8725 11.381 12.0346C11.5431 12.1966 11.7628 12.2876 11.992 12.2876H14.584C14.8131 12.2876 15.0329 12.1966 15.1949 12.0346C15.3569 11.8725 15.448 11.6528 15.448 11.4236C15.448 11.1945 15.3569 10.9747 15.1949 10.8127C15.0329 10.6506 14.8131 10.5596 14.584 10.5596H11.992ZM6.81836 3.21997C7.13314 3.19261 7.48968 3.16626 7.88798 3.14091V22.2987C7.53116 22.2762 7.1746 22.2497 6.81836 22.2192C5.39406 22.0974 4.31665 20.9846 4.21254 19.5689C4.10886 18.1576 4 15.9164 4 12.7196C4 9.52282 4.10886 7.28162 4.21254 5.87028C4.31622 4.45505 5.39406 3.34179 6.81836 3.21997Z" fill="#CCD4DF"/>
</svg>
