<svg width="25" height="25" viewBox="0 0 25 25" fill="none" xmlns="http://www.w3.org/2000/svg">
<path d="M22.3958 2.08334H7.8125V10.2521C8.13513 10.1893 8.46298 10.1572 8.79167 10.1563H13.6719C14.5979 10.1563 15.5019 10.4384 16.2636 10.965C17.0252 11.4917 17.6084 12.2378 17.9354 13.1042L19.9812 12.6333C20.7779 12.4284 21.617 12.4603 22.3958 12.725V2.08334ZM13.0208 4.16668H17.1875V8.33334L15.1042 6.77084L13.0208 8.33334V4.16668Z" fill="#CCD4DF"/>
<path d="M20.3542 14.151L16.6531 15.0021C16.6959 14.562 16.6406 14.118 16.4911 13.7019C16.3416 13.2858 16.1016 12.908 15.7885 12.5958C15.2268 12.035 14.4657 11.7196 13.6719 11.7188H8.79063C8.34582 11.7178 7.90519 11.8046 7.49392 11.974C7.08266 12.1434 6.70881 12.3923 6.39375 12.7063L4.25625 14.8438H0V22.3958H11.8469L18.3021 20.7813L22.1979 19.1208L22.225 19.1063C22.8168 18.8131 23.2785 18.3104 23.5203 17.6958C23.7621 17.0812 23.7667 16.3987 23.5333 15.7809C23.2999 15.163 22.8452 14.6541 22.2574 14.3529C21.6697 14.0516 20.9909 13.9797 20.3531 14.151M8.28646 13.901C8.44503 13.8368 8.61434 13.8033 8.78542 13.8021H13.6708C13.7905 13.8021 13.9091 13.8257 14.0196 13.8715C14.1302 13.9173 14.2307 13.9844 14.3153 14.0691C14.4 14.1537 14.4671 14.2542 14.5129 14.3647C14.5587 14.4753 14.5823 14.5939 14.5823 14.7135C14.5823 14.8332 14.5587 14.9518 14.5129 15.0623C14.4671 15.1729 14.4 15.2734 14.3153 15.358C14.2307 15.4427 14.1302 15.5098 14.0196 15.5556C13.9091 15.6014 13.7905 15.625 13.6708 15.625H10.4167V17.7083H14.1813L20.8604 16.1719L20.8813 16.1667C21.0176 16.1301 21.1626 16.1445 21.289 16.2073C21.4155 16.2701 21.5146 16.3769 21.5678 16.5077C21.6211 16.6384 21.6247 16.7841 21.5781 16.9174C21.5314 17.0506 21.4377 17.1622 21.3146 17.2313L17.6354 18.8021L11.5906 20.3125H5.72917V16.3167L7.86458 14.1813C7.98656 14.0617 8.13005 13.9662 8.2875 13.9M2.08333 16.9271H3.64583V20.3125H2.08333V16.9271Z" fill="#CCD4DF"/>
</svg>
