<svg width="25" height="25" viewBox="0 0 25 25" fill="none" xmlns="http://www.w3.org/2000/svg">
<path fill-rule="evenodd" clip-rule="evenodd" d="M2.21146 13.35C2.51042 14.3948 3.31562 15.199 4.925 16.8084L6.83125 18.7146C9.63333 21.5177 11.0333 22.9167 12.7729 22.9167C14.5135 22.9167 15.9135 21.5167 18.7146 18.7156C21.5167 15.9136 22.9167 14.5136 22.9167 12.7729C22.9167 11.0334 21.5167 9.63232 18.7156 6.83127L16.8094 4.92502C15.199 3.31565 14.3948 2.51044 13.35 2.21148C12.3052 1.91148 11.1958 2.16773 8.97812 2.68023L7.69896 2.97502C5.83229 3.40523 4.89896 3.62086 4.25937 4.2594C3.61979 4.89794 3.40625 5.83336 2.975 7.69898L2.67917 8.97815C2.16771 11.1969 1.9125 12.3052 2.21146 13.35ZM10.5437 7.57398C10.7447 7.76774 10.905 7.99958 11.0153 8.25598C11.1256 8.51237 11.1837 8.78818 11.1862 9.06729C11.1887 9.34639 11.1356 9.62321 11.03 9.88156C10.9244 10.1399 10.7683 10.3746 10.5709 10.572C10.3736 10.7694 10.1388 10.9254 9.88049 11.0311C9.62214 11.1367 9.34533 11.1898 9.06622 11.1873C8.78711 11.1848 8.51131 11.1266 8.25491 11.0163C7.99852 10.906 7.76667 10.7457 7.57292 10.5448C7.19068 10.1485 6.97932 9.6179 6.98431 9.06729C6.9893 8.51667 7.21025 7.99003 7.5996 7.60067C7.98896 7.21131 8.51561 6.99037 9.06622 6.98538C9.61683 6.98039 10.1474 7.19175 10.5437 7.57398ZM19.8437 12.5531L12.574 19.824C12.4265 19.9662 12.2292 20.0449 12.0243 20.043C11.8195 20.0411 11.6236 19.9589 11.4788 19.814C11.334 19.669 11.2519 19.473 11.2503 19.2682C11.2486 19.0634 11.3274 18.8661 11.4698 18.7188L18.7385 11.4479C18.8851 11.3014 19.0839 11.219 19.2911 11.219C19.4984 11.219 19.6972 11.3014 19.8437 11.4479C19.9903 11.5945 20.0726 11.7933 20.0726 12.0005C20.0726 12.2078 19.9903 12.4066 19.8437 12.5531Z" fill="#CCD4DF"/>
</svg>
