<svg width="21" height="22" viewBox="0 0 21 22" fill="none" xmlns="http://www.w3.org/2000/svg">
<path d="M6.52631 0.383583C6.63174 0.205293 6.80366 0.0761703 7.00427 0.0246019C7.20488 -0.0269666 7.41776 0.00324075 7.5961 0.108583L8.46277 0.621083L18.0951 6.14921C18.2748 6.25239 18.4061 6.42274 18.4602 6.62278C18.5144 6.82282 18.4868 7.03616 18.3836 7.21587C18.2804 7.39559 18.1101 7.52695 17.91 7.58106C17.71 7.63517 17.4966 7.6076 17.3169 7.50442L16.4388 7.00025L14.8711 9.7065L14.869 9.70442L12.2044 8.17212C12.1154 8.11914 12.0168 8.08439 11.9142 8.06988C11.8117 8.05537 11.7073 8.06139 11.6071 8.0876C11.5069 8.11381 11.4129 8.15969 11.3306 8.22255C11.2483 8.28542 11.1793 8.36402 11.1276 8.4538C11.076 8.54357 11.0427 8.64271 11.0297 8.74547C11.0167 8.84822 11.0243 8.95253 11.052 9.05233C11.0797 9.15213 11.127 9.24543 11.191 9.3268C11.2551 9.40816 11.3347 9.47598 11.4253 9.52629L14.0878 11.0575L13.0867 12.7867L13.0846 12.7857L8.70652 10.2669C8.61752 10.2139 8.51888 10.1792 8.41633 10.1647C8.31378 10.1502 8.20937 10.1562 8.10917 10.1824C8.00897 10.2086 7.91498 10.2545 7.83267 10.3173C7.75036 10.3802 7.68138 10.4588 7.62972 10.5486C7.57807 10.6384 7.54478 10.7375 7.5318 10.8403C7.51881 10.943 7.52638 11.0473 7.55408 11.1471C7.58178 11.2469 7.62904 11.3402 7.69312 11.4216C7.7572 11.503 7.83682 11.5708 7.92735 11.6211L12.3024 14.1388L11.3805 15.7315L11.3784 15.7294L8.65652 14.1638C8.47717 14.0641 8.2658 14.039 8.06808 14.0939C7.87036 14.1487 7.70216 14.2792 7.59983 14.457C7.4975 14.6349 7.46924 14.8459 7.52117 15.0444C7.5731 15.2429 7.70104 15.413 7.87735 15.518L10.5971 17.0825L9.43048 19.095C8.75765 20.2532 7.65329 21.0975 6.35924 21.4431C5.0652 21.7886 3.68694 21.6073 2.52631 20.9388C1.95212 20.6094 1.44862 20.1699 1.04469 19.6455C0.640762 19.1211 0.344352 18.5221 0.17247 17.8829C0.000587882 17.2436 -0.043384 16.5768 0.0430772 15.9205C0.129539 15.2642 0.344731 14.6315 0.676309 14.0586L7.67839 1.97212L7.67214 1.969L6.80131 1.45442C6.71289 1.40221 6.63563 1.33308 6.57395 1.251C6.51226 1.16891 6.46737 1.07546 6.44183 0.976007C6.41628 0.876552 6.4106 0.773039 6.4251 0.671385C6.43959 0.569732 6.47399 0.471934 6.52631 0.383583ZM18.7482 16.4065C19.8992 16.4065 20.8315 15.4346 20.8315 14.2367C20.8315 13.4867 20.0159 12.4857 19.4044 11.8409C19.3206 11.7506 19.219 11.6787 19.1061 11.6295C18.9932 11.5802 18.8714 11.5548 18.7482 11.5548C18.625 11.5548 18.5032 11.5802 18.3902 11.6295C18.2773 11.6787 18.1758 11.7506 18.0919 11.8409C17.4805 12.4857 16.6649 13.4867 16.6649 14.2367C16.6649 15.4346 17.5971 16.4065 18.7482 16.4065Z" fill="#CCD4DF"/>
</svg>
