<svg width="25" height="25" viewBox="0 0 25 25" fill="none" xmlns="http://www.w3.org/2000/svg">
<path d="M18.75 23.9583C17.309 23.9583 16.0809 23.4503 15.0656 22.4344C14.0503 21.4184 13.5424 20.1903 13.5417 18.75C13.541 17.3097 14.049 16.0816 15.0656 15.0656C16.0823 14.0497 17.3104 13.5417 18.75 13.5417C20.1896 13.5417 21.4181 14.0497 22.4354 15.0656C23.4528 16.0816 23.9604 17.3097 23.9583 18.75C23.9562 20.1903 23.4483 21.4188 22.4344 22.4354C21.4205 23.4521 20.1924 23.9597 18.75 23.9583ZM17.9948 21.0938L21.6146 17.5L20.5208 16.4063L17.9948 18.8802L16.9792 17.8646L15.8854 18.9844L17.9948 21.0938ZM4.16667 21.875C3.59375 21.875 3.10313 21.6712 2.69479 21.2635C2.28646 20.8559 2.08264 20.3653 2.08333 19.7917V17.7083C2.08333 17.1354 2.2875 16.6451 2.69583 16.2375C3.10417 15.8299 3.59444 15.6257 4.16667 15.625H5.20833V10.4167C5.20833 8.38542 5.91597 6.6625 7.33125 5.24792C8.74653 3.83333 10.4694 3.12569 12.5 3.125C14.5306 3.12431 16.2538 3.83195 17.6698 5.24792C19.0858 6.66389 19.7931 8.38681 19.7917 10.4167V11.5365C19.6181 11.5017 19.4486 11.4802 19.2833 11.4719C19.1181 11.4635 18.9403 11.459 18.75 11.4583C16.7361 11.4583 15.0174 12.166 13.5938 13.5813C12.1701 14.9965 11.4583 16.7194 11.4583 18.75C11.4583 19.2882 11.5149 19.8222 11.6281 20.3521C11.7413 20.8819 11.9191 21.3896 12.1615 21.875H4.16667ZM8.33333 13.5417H10.4167V10.4167C10.4167 9.84375 10.6208 9.35347 11.0292 8.94583C11.4375 8.5382 11.9278 8.33403 12.5 8.33333V6.25C11.3542 6.25 10.3733 6.65799 9.55729 7.47396C8.74132 8.28993 8.33333 9.27083 8.33333 10.4167V13.5417Z" fill="#CCD4DF"/>
</svg>
