<svg width="25" height="25" viewBox="0 0 25 25" fill="none" xmlns="http://www.w3.org/2000/svg">
<path d="M8.03472 11.7986H16.1042V10.6458H8.03472V11.7986ZM8.03472 7.1875H16.1042V6.03472H8.03472V7.1875ZM20.0374 21.5246L16.0996 16.4178C15.8175 16.0504 15.4805 15.7653 15.0886 15.5624C14.6966 15.3588 14.2666 15.2569 13.7986 15.2569H4V3.86289C4 3.33184 4.17791 2.88879 4.53374 2.53374C4.88956 2.17868 5.33261 2.00077 5.86289 2H18.2772C18.8074 2 19.2505 2.17791 19.6063 2.53374C19.9621 2.88956 20.1397 3.33261 20.1389 3.86289V20.8883C20.1389 20.9989 20.1304 21.1084 20.1135 21.2168C20.0966 21.3259 20.0713 21.4285 20.0374 21.5246ZM5.86289 22.75C5.33184 22.75 4.88879 22.5725 4.53374 22.2174C4.17868 21.8624 4.00077 21.4193 4 20.8883V16.4097H13.7986C14.0799 16.4097 14.3389 16.4712 14.5756 16.5942C14.8131 16.7179 15.019 16.8935 15.1935 17.121L19.2593 22.4422C19.1187 22.5398 18.9661 22.6155 18.8017 22.6693C18.6372 22.7231 18.462 22.75 18.276 22.75H5.86289Z" fill="#CCD4DF"/>
</svg>
