<svg width="25" height="25" viewBox="0 0 25 25" fill="none" xmlns="http://www.w3.org/2000/svg">
<path d="M4.39295 7.10078L2.57734 7.03949L2.36188 7.73949C1.92523 9.15455 1.8829 10.6619 2.23945 12.0992C2.596 13.5366 3.33791 14.8494 4.38528 15.8963C5.42853 16.9399 6.73583 17.6802 8.16736 18.0381C9.59889 18.3961 11.1008 18.3581 12.5124 17.9283L17.5829 22.9998L19.6159 20.9668L15.502 16.8529L16.8561 15.4989L20.9699 19.6127L23 17.5826L17.9286 12.5131C18.3585 11.1014 18.3966 9.59927 18.0387 8.16755C17.6807 6.73583 16.9403 5.42837 15.8966 4.38503C14.8496 3.33766 13.5368 2.59574 12.0995 2.2392C10.6622 1.88265 9.1548 1.92498 7.73975 2.36163L7.0407 2.57709L7.10103 4.39269L10.4794 7.77109L7.77135 10.4792L4.39295 7.10078Z" fill="#CCD4DF"/>
</svg>
