<svg width="25" height="25" viewBox="0 0 25 25" fill="none" xmlns="http://www.w3.org/2000/svg">
<path fill-rule="evenodd" clip-rule="evenodd" d="M14.0625 1.5625C14.8913 1.5625 15.6862 1.89174 16.2722 2.47779C16.8583 3.06384 17.1875 3.8587 17.1875 4.6875V7.8125C17.1875 8.6413 16.8583 9.43616 16.2722 10.0222C15.6862 10.6083 14.8913 10.9375 14.0625 10.9375H13.6719V12.5H19.1406C19.555 12.5 19.9525 12.6646 20.2455 12.9576C20.5385 13.2507 20.7031 13.6481 20.7031 14.0625V15.6531C22.2437 15.8437 23.4375 17.1562 23.4375 18.75V20.3125C23.4377 21.0862 23.1508 21.8325 22.6324 22.4069C22.114 22.9813 21.4009 23.343 20.6313 23.4219L20.3125 23.4375H18.75L18.4312 23.4219C17.7164 23.3483 17.0487 23.0307 16.5406 22.5224C16.0326 22.0141 15.7153 21.3462 15.6422 20.6313L15.625 20.3125V18.75C15.625 17.1562 16.8188 15.8437 18.3594 15.6531V14.8438H6.64062V15.6531C8.18125 15.8437 9.375 17.1562 9.375 18.75V20.3125C9.37517 21.0862 9.08829 21.8325 8.56989 22.4069C8.0515 22.9813 7.33845 23.343 6.56875 23.4219L6.25 23.4375H4.6875L4.36875 23.4219C3.65386 23.3483 2.98617 23.0307 2.47814 22.5224C1.97012 22.0141 1.65281 21.3462 1.57969 20.6313L1.5625 20.3125V18.75C1.5625 17.1562 2.75625 15.8437 4.29688 15.6531V14.0625C4.29688 13.6481 4.46149 13.2507 4.75452 12.9576C5.04755 12.6646 5.44497 12.5 5.85938 12.5H11.3281V10.9375H10.9375C10.1087 10.9375 9.31384 10.6083 8.72779 10.0222C8.14174 9.43616 7.8125 8.6413 7.8125 7.8125V4.6875C7.8125 3.8587 8.14174 3.06384 8.72779 2.47779C9.31384 1.89174 10.1087 1.5625 10.9375 1.5625H14.0625ZM4.6875 17.9688C4.4803 17.9688 4.28159 18.0511 4.13507 18.1976C3.98856 18.3441 3.90625 18.5428 3.90625 18.75V20.3125C3.90625 20.5197 3.98856 20.7184 4.13507 20.8649C4.28159 21.0114 4.4803 21.0938 4.6875 21.0938H6.25C6.4572 21.0938 6.65591 21.0114 6.80243 20.8649C6.94894 20.7184 7.03125 20.5197 7.03125 20.3125V18.75C7.03125 18.5428 6.94894 18.3441 6.80243 18.1976C6.65591 18.0511 6.4572 17.9688 6.25 17.9688H4.6875ZM18.75 17.9688C18.5428 17.9688 18.3441 18.0511 18.1976 18.1976C18.0511 18.3441 17.9688 18.5428 17.9688 18.75V20.3125C17.9688 20.5197 18.0511 20.7184 18.1976 20.8649C18.3441 21.0114 18.5428 21.0938 18.75 21.0938H20.3125C20.5197 21.0938 20.7184 21.0114 20.8649 20.8649C21.0114 20.7184 21.0938 20.5197 21.0938 20.3125V18.75C21.0938 18.5428 21.0114 18.3441 20.8649 18.1976C20.7184 18.0511 20.5197 17.9688 20.3125 17.9688H18.75Z" fill="#CCD4DF"/>
</svg>
